<svg xmlns="http://www.w3.org/2000/svg" width="512" height="512" viewBox="0 0 512 512">
  <rect width="512" height="512" rx="112" fill="#15181d"/>
  <circle cx="256" cy="256" r="54" fill="#f5f7fb"/>
  <path d="M251 74c50 0 91 38 95 87 3 34-14 66-42 84l-35 22c-13 8-30-2-29-18l6-121c1-21-12-40-32-47 12-5 24-7 37-7z" fill="#5bd7a5"/>
  <path d="M419 246c0 50-38 91-87 95-34 3-66-14-84-42l-22-35c-8-13 2-30 18-29l121 6c21 1 40-12 47-32 5 12 7 24 7 37z" fill="#66a8ff"/>
  <path d="M261 438c-50 0-91-38-95-87-3-34 14-66 42-84l35-22c13-8 30 2 29 18l-6 121c-1 21 12 40 32 47-12 5-24 7-37 7z" fill="#ffcf5a"/>
  <path d="M93 266c0-50 38-91 87-95 34-3 66 14 84 42l22 35c8 13-2 30-18 29l-121-6c-21-1-40 12-47 32-5-12-7-24-7-37z" fill="#ff7c7c"/>
</svg>
